<svg xmlns="http://www.w3.org/2000/svg" xmlns:xlink="http://www.w3.org/1999/xlink" width="0" height="0">

  <symbol id="arrow" width="42" height="40" viewBox="0 0 42 40" fill="none">
    <path d="M24.9048 19.111C24.9606 19.1669 24.9885 19.231 24.9885 19.3036C24.9885 19.3761 24.9606 19.4403 24.9048 19.4961L21.0041 23.3968C20.9483 23.4526 20.8841 23.4805 20.8116 23.4805C20.7391 23.4805 20.6749 23.4526 20.6191 23.3968L16.7184 19.4961C16.6626 19.4403 16.6347 19.3761 16.6347 19.3036C16.6347 19.231 16.6626 19.1669 16.7184 19.111L17.1369 18.6925C17.1927 18.6367 17.2569 18.6088 17.3295 18.6088C17.402 18.6088 17.4662 18.6367 17.522 18.6925L20.8116 21.9821L24.1012 18.6925C24.157 18.6367 24.2212 18.6088 24.2937 18.6088C24.3663 18.6088 24.4305 18.6367 24.4863 18.6925L24.9048 19.111Z" fill="white"/>
    <path opacity="0.7" d="M40.5447 20C40.5447 30.7685 31.7958 39.5 21.0011 39.5C10.2064 39.5 1.45746 30.7685 1.45746 20C1.45746 9.23147 10.2064 0.5 21.0011 0.5C31.7958 0.5 40.5447 9.23147 40.5447 20Z" stroke="white"/>
  </symbol>

  <symbol id="facebook" width="40" height="40" viewBox="0 0 40 40" fill="none">
    <path d="M23.7188 21H21.375V28H18.25V21H15.7188V18.0938H18.25V15.9062C18.25 15.0729 18.4062 14.3646 18.7188 13.7812C19.0312 13.1979 19.4688 12.7604 20.0312 12.4688C20.6146 12.1562 21.2812 12 22.0312 12C22.3646 12 22.7188 12.0208 23.0938 12.0625C23.4688 12.0833 23.7604 12.1146 23.9688 12.1562L24.2812 12.1875V14.6562H23.0312C22.4479 14.6562 22.0208 14.8125 21.75 15.125C21.5 15.4167 21.375 15.7812 21.375 16.2188V18.0938H24.1562L23.7188 21Z" fill="white"/>
    <circle opacity="0.4" cx="20" cy="20" r="19.5" stroke="white"/>
  </symbol>

  <symbol id="inst" width="40" height="40" viewBox="0 0 40 40" fill="none">
    <path d="M17.4688 17.4688C18.1771 16.7604 19.0312 16.4062 20.0312 16.4062C21.0312 16.4062 21.875 16.7604 22.5625 17.4688C23.2708 18.1562 23.625 19 23.625 20C23.625 21 23.2708 21.8542 22.5625 22.5625C21.875 23.25 21.0312 23.5938 20.0312 23.5938C19.0312 23.5938 18.1771 23.25 17.4688 22.5625C16.7812 21.8542 16.4375 21 16.4375 20C16.4375 19 16.7812 18.1562 17.4688 17.4688ZM18.375 21.6562C18.8333 22.1146 19.3854 22.3438 20.0312 22.3438C20.6771 22.3438 21.2292 22.1146 21.6875 21.6562C22.1458 21.1979 22.375 20.6458 22.375 20C22.375 19.3542 22.1458 18.8021 21.6875 18.3438C21.2292 17.8854 20.6771 17.6562 20.0312 17.6562C19.3854 17.6562 18.8333 17.8854 18.375 18.3438C17.9167 18.8021 17.6875 19.3542 17.6875 20C17.6875 20.6458 17.9167 21.1979 18.375 21.6562ZM24.3438 15.6875C24.5104 15.8333 24.5938 16.0208 24.5938 16.25C24.5938 16.4792 24.5104 16.6771 24.3438 16.8438C24.1979 17.0104 24.0104 17.0938 23.7812 17.0938C23.5521 17.0938 23.3542 17.0104 23.1875 16.8438C23.0208 16.6771 22.9375 16.4792 22.9375 16.25C22.9375 16.0208 23.0208 15.8333 23.1875 15.6875C23.3542 15.5208 23.5521 15.4375 23.7812 15.4375C24.0104 15.4375 24.1979 15.5208 24.3438 15.6875ZM27 17.125C27.0208 17.6875 27.0312 18.6458 27.0312 20C27.0312 21.3542 27.0208 22.3125 27 22.875C26.9375 24.1458 26.5521 25.1354 25.8438 25.8438C25.1562 26.5312 24.1771 26.8958 22.9062 26.9375C22.3438 26.9792 21.3854 27 20.0312 27C18.6771 27 17.7188 26.9792 17.1562 26.9375C15.8854 26.875 14.9062 26.5 14.2188 25.8125C13.9479 25.5625 13.7292 25.2708 13.5625 24.9375C13.3958 24.6042 13.2708 24.2812 13.1875 23.9688C13.125 23.6562 13.0938 23.2917 13.0938 22.875C13.0521 22.3125 13.0312 21.3542 13.0312 20C13.0312 18.6458 13.0521 17.6771 13.0938 17.0938C13.1562 15.8438 13.5312 14.875 14.2188 14.1875C14.9062 13.4792 15.8854 13.0938 17.1562 13.0312C17.7188 13.0104 18.6771 13 20.0312 13C21.3854 13 22.3438 13.0104 22.9062 13.0312C24.1771 13.0938 25.1562 13.4792 25.8438 14.1875C26.5521 14.875 26.9375 15.8542 27 17.125ZM25.5 24.125C25.5625 23.9583 25.6146 23.75 25.6562 23.5C25.6979 23.2292 25.7292 22.9167 25.75 22.5625C25.7708 22.1875 25.7812 21.8854 25.7812 21.6562C25.7812 21.4271 25.7812 21.1042 25.7812 20.6875C25.7812 20.2708 25.7812 20.0417 25.7812 20C25.7812 19.9375 25.7812 19.7083 25.7812 19.3125C25.7812 18.8958 25.7812 18.5729 25.7812 18.3438C25.7812 18.1146 25.7708 17.8229 25.75 17.4688C25.7292 17.0938 25.6979 16.7812 25.6562 16.5312C25.6146 16.2604 25.5625 16.0417 25.5 15.875C25.25 15.2292 24.8021 14.7812 24.1562 14.5312C23.9896 14.4688 23.7708 14.4167 23.5 14.375C23.25 14.3333 22.9375 14.3021 22.5625 14.2812C22.2083 14.2604 21.9167 14.25 21.6875 14.25C21.4792 14.25 21.1562 14.25 20.7188 14.25C20.3021 14.25 20.0729 14.25 20.0312 14.25C19.9896 14.25 19.7604 14.25 19.3438 14.25C18.9271 14.25 18.6042 14.25 18.375 14.25C18.1458 14.25 17.8438 14.2604 17.4688 14.2812C17.1146 14.3021 16.8021 14.3333 16.5312 14.375C16.2812 14.4167 16.0729 14.4688 15.9062 14.5312C15.2604 14.7812 14.8125 15.2292 14.5625 15.875C14.5 16.0417 14.4479 16.2604 14.4062 16.5312C14.3646 16.7812 14.3333 17.0938 14.3125 17.4688C14.2917 17.8229 14.2812 18.1146 14.2812 18.3438C14.2812 18.5521 14.2812 18.875 14.2812 19.3125C14.2812 19.7292 14.2812 19.9583 14.2812 20C14.2812 20.0833 14.2812 20.2812 14.2812 20.5938C14.2812 20.8854 14.2812 21.1354 14.2812 21.3438C14.2812 21.5312 14.2812 21.7812 14.2812 22.0938C14.3021 22.4062 14.3229 22.6771 14.3438 22.9062C14.3646 23.1146 14.3958 23.3333 14.4375 23.5625C14.4792 23.7917 14.5208 23.9792 14.5625 24.125C14.8333 24.7708 15.2812 25.2188 15.9062 25.4688C16.0729 25.5312 16.2812 25.5833 16.5312 25.625C16.8021 25.6667 17.1146 25.6979 17.4688 25.7188C17.8438 25.7396 18.1354 25.75 18.3438 25.75C18.5729 25.75 18.8958 25.75 19.3125 25.75C19.75 25.75 19.9896 25.75 20.0312 25.75C20.0938 25.75 20.3229 25.75 20.7188 25.75C21.1354 25.75 21.4583 25.75 21.6875 25.75C21.9167 25.75 22.2083 25.7396 22.5625 25.7188C22.9375 25.6979 23.25 25.6667 23.5 25.625C23.7708 25.5833 23.9896 25.5312 24.1562 25.4688C24.8021 25.1979 25.25 24.75 25.5 24.125Z" fill="white"/>
    <circle opacity="0.4" cx="20" cy="20" r="19.5" stroke="white"/>
  </symbol>

  <symbol id="location" width="9" height="14" viewBox="0 0 9 14" fill="none">
    <path d="M6.42857 4.5C6.42857 5.68025 5.46596 6.64286 4.28571 6.64286C3.10547 6.64286 2.14286 5.68025 2.14286 4.5C2.14286 3.31975 3.10547 2.35714 4.28571 2.35714C5.46596 2.35714 6.42857 3.31975 6.42857 4.5ZM8.57143 4.5C8.57143 2.13114 6.65458 0.214285 4.28571 0.214285C1.91685 0.214285 0 2.13114 0 4.5C0 5.0106 0.0585938 5.53795 0.276228 5.99833L3.33147 12.4771C3.49888 12.8454 3.88393 13.0714 4.28571 13.0714C4.6875 13.0714 5.07254 12.8454 5.24833 12.4771L8.2952 5.99833C8.51284 5.53795 8.57143 5.0106 8.57143 4.5Z" fill="#2C4058"/>
  </symbol>

  <symbol id="twitter" width="40" height="40" viewBox="0 0 40 40" fill="none">
    <path d="M26.3438 16.75C26.3646 16.8333 26.375 16.9688 26.375 17.1562C26.375 18.2604 26.1667 19.3646 25.75 20.4688C25.3333 21.5521 24.7396 22.5521 23.9688 23.4688C23.2188 24.3646 22.2396 25.0938 21.0312 25.6562C19.8229 26.2188 18.4896 26.5 17.0312 26.5C15.1979 26.5 13.5208 26.0104 12 25.0312C12.2292 25.0521 12.4896 25.0625 12.7812 25.0625C14.3021 25.0625 15.6667 24.5938 16.875 23.6562C16.1458 23.6562 15.5 23.4479 14.9375 23.0312C14.3958 22.5938 14.0208 22.0521 13.8125 21.4062C14.0208 21.4271 14.2188 21.4375 14.4062 21.4375C14.6979 21.4375 14.9896 21.4062 15.2812 21.3438C14.7812 21.2396 14.3333 21.0312 13.9375 20.7188C13.5417 20.4062 13.2292 20.0312 13 19.5938C12.7708 19.1354 12.6562 18.6458 12.6562 18.125V18.0625C13.1146 18.3333 13.6042 18.4792 14.125 18.5C13.1458 17.8333 12.6562 16.9167 12.6562 15.75C12.6562 15.1667 12.8125 14.6146 13.125 14.0938C13.9375 15.1146 14.9271 15.9271 16.0938 16.5312C17.2812 17.1354 18.5417 17.4688 19.875 17.5312C19.8333 17.2812 19.8125 17.0312 19.8125 16.7812C19.8125 15.8854 20.125 15.1146 20.75 14.4688C21.3958 13.8229 22.1667 13.5 23.0625 13.5C24.0208 13.5 24.8229 13.8438 25.4688 14.5312C26.2188 14.3854 26.9167 14.125 27.5625 13.75C27.3125 14.5208 26.8333 15.125 26.125 15.5625C26.75 15.4792 27.375 15.3021 28 15.0312C27.5417 15.6979 26.9896 16.2708 26.3438 16.75Z" fill="white"/>
    <circle opacity="0.4" cx="20" cy="20" r="19.5" stroke="white"/>
  </symbol>

  <symbol id="zoom" width="70" height="70" viewBox="0 0 70 70" fill="none">
    <path fill-rule="evenodd" clip-rule="evenodd" d="M28.4375 52.5C31.5974 52.5 34.7264 51.8776 37.6458 50.6684C40.5652 49.4591 43.2178 47.6867 45.4523 45.4523C47.6867 43.2178 49.4591 40.5652 50.6684 37.6458C51.8776 34.7264 52.5 31.5974 52.5 28.4375C52.5 25.2776 51.8776 22.1486 50.6684 19.2292C49.4591 16.3098 47.6867 13.6572 45.4523 11.4227C43.2178 9.18833 40.5652 7.4159 37.6458 6.20665C34.7264 4.9974 31.5974 4.375 28.4375 4.375C22.0557 4.375 15.9353 6.91015 11.4227 11.4227C6.91015 15.9353 4.375 22.0557 4.375 28.4375C4.375 34.8193 6.91015 40.9397 11.4227 45.4523C15.9353 49.9649 22.0557 52.5 28.4375 52.5ZM56.875 28.4375C56.875 35.9796 53.8789 43.2128 48.5458 48.5458C43.2128 53.8789 35.9796 56.875 28.4375 56.875C20.8954 56.875 13.6622 53.8789 8.32915 48.5458C2.99609 43.2128 0 35.9796 0 28.4375C0 20.8954 2.99609 13.6622 8.32915 8.32915C13.6622 2.99609 20.8954 0 28.4375 0C35.9796 0 43.2128 2.99609 48.5458 8.32915C53.8789 13.6622 56.875 20.8954 56.875 28.4375Z" fill="white"/>
    <path d="M45.255 51.3714C45.3863 51.5464 45.5263 51.7126 45.6838 51.8745L62.5275 68.7182C63.3479 69.5392 64.4607 70.0006 65.6213 70.001C66.7818 70.0014 67.895 69.5408 68.7159 68.7204C69.5369 67.9001 69.9983 66.7872 69.9987 65.6267C69.9991 64.4661 69.5385 63.3529 68.7181 62.532L51.8744 45.6882C51.718 45.5299 51.5498 45.3836 51.3713 45.2507C49.655 47.5908 47.5927 49.6561 45.255 51.3757V51.3714Z" fill="white"/>
    <path fill-rule="evenodd" clip-rule="evenodd" d="M28.4375 13.125C29.0177 13.125 29.5741 13.3555 29.9843 13.7657C30.3945 14.1759 30.625 14.7323 30.625 15.3125V26.25H41.5625C42.1427 26.25 42.6991 26.4805 43.1093 26.8907C43.5195 27.3009 43.75 27.8573 43.75 28.4375C43.75 29.0177 43.5195 29.5741 43.1093 29.9843C42.6991 30.3945 42.1427 30.625 41.5625 30.625H30.625V41.5625C30.625 42.1427 30.3945 42.6991 29.9843 43.1093C29.5741 43.5195 29.0177 43.75 28.4375 43.75C27.8573 43.75 27.3009 43.5195 26.8907 43.1093C26.4805 42.6991 26.25 42.1427 26.25 41.5625V30.625H15.3125C14.7323 30.625 14.1759 30.3945 13.7657 29.9843C13.3555 29.5741 13.125 29.0177 13.125 28.4375C13.125 27.8573 13.3555 27.3009 13.7657 26.8907C14.1759 26.4805 14.7323 26.25 15.3125 26.25H26.25V15.3125C26.25 14.7323 26.4805 14.1759 26.8907 13.7657C27.3009 13.3555 27.8573 13.125 28.4375 13.125Z" fill="white"/>
  </symbol>

   <symbol id="form" width="285" height="185" viewBox="0 0 285 185" fill="none">
     <path d="M7.71429 6C7.71429 7.41629 6.55915 8.57143 5.14286 8.57143C3.72656 8.57143 2.57143 7.41629 2.57143 6C2.57143 4.5837 3.72656 3.42857 5.14286 3.42857C6.55915 3.42857 7.71429 4.5837 7.71429 6ZM10.2857 6C10.2857 3.15737 7.98549 0.857142 5.14286 0.857142C2.30022 0.857142 0 3.15737 0 6C0 6.61272 0.0703125 7.24554 0.331473 7.79799L3.99777 15.5725C4.19866 16.0145 4.66071 16.2857 5.14286 16.2857C5.625 16.2857 6.08705 16.0145 6.29799 15.5725L9.95424 7.79799C10.2154 7.24554 10.2857 6.61272 10.2857 6ZM14.1429 68.0268C14.1429 67.9565 14.1429 67.8862 14.1127 67.8158C14.0424 67.6049 13.5502 67.3839 13.3493 67.2835C12.7768 66.9621 12.1942 66.6507 11.6317 66.3192C11.3705 66.1585 11.0491 65.8571 10.7377 65.8571C10.125 65.8571 9.23103 67.6752 8.68862 67.6752C8.41741 67.6752 8.06585 67.4241 7.82478 67.2835C5.99665 66.269 4.73103 65.0033 3.71652 63.1752C3.57589 62.9342 3.32478 62.5826 3.32478 62.3114C3.32478 61.769 5.14286 60.875 5.14286 60.2623C5.14286 59.9509 4.84152 59.6295 4.6808 59.3683C4.34933 58.8058 4.03795 58.2232 3.71652 57.6507C3.61607 57.4498 3.39509 56.9576 3.18415 56.8873C3.11384 56.8571 3.04353 56.8571 2.97321 56.8571C2.61161 56.8571 1.90848 57.0179 1.57701 57.1685C1.08482 57.3795 0.763393 57.942 0.512277 58.394C0.190848 58.9866 0 59.5893 0 60.2623C0 61.1964 0.381696 62.0402 0.69308 62.894C0.914063 63.5067 1.18527 64.0993 1.52679 64.6518C2.58147 66.3594 4.64062 68.4185 6.34821 69.4732C6.90067 69.8147 7.4933 70.0859 8.10603 70.3069C8.95982 70.6183 9.80357 71 10.7377 71C11.4107 71 12.0134 70.8092 12.606 70.4877C13.058 70.2366 13.6205 69.9152 13.8315 69.423C13.9821 69.0915 14.1429 68.3884 14.1429 68.0268ZM10.2757 121.214L9.32143 123.143H6.10714L5.1529 121.214H1.97879C1.99888 121.164 2.00893 121.104 2.02902 121.054L4.15848 116.071H11.2701L13.3996 121.054C13.4196 121.104 13.4297 121.164 13.4498 121.214H10.2757ZM15.4286 121.516C15.4286 121.154 15.3181 120.622 15.1775 120.28L12.7868 114.735C12.6462 114.404 12.2444 114.143 11.8929 114.143H3.53571C3.18415 114.143 2.78237 114.404 2.64174 114.735L0.251116 120.28C0.110491 120.622 0 121.154 0 121.516V126.357C0 126.709 0.291295 127 0.642857 127H14.7857C15.1373 127 15.4286 126.709 15.4286 126.357V121.516ZM9 173.036C9 172.855 8.85938 172.714 8.67857 172.714H8.03571C7.85491 172.714 7.71429 172.855 7.71429 173.036V176.571H5.46429C5.28348 176.571 5.14286 176.712 5.14286 176.893V177.536C5.14286 177.717 5.28348 177.857 5.46429 177.857H8.67857C8.85938 177.857 9 177.717 9 177.536V173.036ZM13.1786 176.571C13.1786 179.585 10.7277 182.036 7.71429 182.036C4.70089 182.036 2.25 179.585 2.25 176.571C2.25 173.558 4.70089 171.107 7.71429 171.107C10.7277 171.107 13.1786 173.558 13.1786 176.571ZM15.4286 176.571C15.4286 172.312 11.9732 168.857 7.71429 168.857C3.45536 168.857 0 172.312 0 176.571C0 180.83 3.45536 184.286 7.71429 184.286C11.9732 184.286 15.4286 180.83 15.4286 176.571Z" fill="#7E5AFF"/>
   </symbol>

</svg>