<svg xmlns="http://www.w3.org/2000/svg" xmlns:xlink="http://www.w3.org/1999/xlink" width="0" height="0">
<symbol id="facebook" width="50" height="50" viewBox="0 0 50 50" fill="none">
    <rect x="0.5" y="0.5" width="49" height="49" fill="var(--color-1)"/>
    <rect x="0.5" y="0.5" width="49" height="49" stroke="#565656"/>
    <path d="M30.5847 26.5L31.2512 22.1566H27.0836V19.338C27.0836 18.1497 27.6658 16.9914 29.5323 16.9914H31.427V13.2934C31.427 13.2934 29.7077 13 28.0637 13C24.6316 13 22.3881 15.0803 22.3881 18.8463V22.1566H18.573V26.5H22.3881V37H27.0836V26.5H30.5847Z" fill="var(--color-2)"/>
</symbol>

<symbol id="instagram" width="50" height="50" viewBox="0 0 50 50" fill="none">
    <rect x="0.5" y="0.5" width="49" height="49" fill="var(--color-1)"/>
    <rect x="0.5" y="0.5" width="49" height="49" stroke="#565656"/>
    <path d="M25.0027 18.8467C21.5967 18.8467 18.8494 21.594 18.8494 25C18.8494 28.406 21.5967 31.1533 25.0027 31.1533C28.4087 31.1533 31.156 28.406 31.156 25C31.156 21.594 28.4087 18.8467 25.0027 18.8467ZM25.0027 29.0004C22.8016 29.0004 21.0022 27.2064 21.0022 25C21.0022 22.7936 22.7963 20.9996 25.0027 20.9996C27.2091 20.9996 29.0031 22.7936 29.0031 25C29.0031 27.2064 27.2037 29.0004 25.0027 29.0004ZM32.8429 18.595C32.8429 19.3929 32.2003 20.0302 31.4077 20.0302C30.6097 20.0302 29.9724 19.3876 29.9724 18.595C29.9724 17.8024 30.6151 17.1598 31.4077 17.1598C32.2003 17.1598 32.8429 17.8024 32.8429 18.595ZM36.9183 20.0517C36.8273 18.1291 36.3881 16.4261 34.9797 15.023C33.5766 13.6199 31.8736 13.1807 29.951 13.0843C27.9695 12.9719 22.0305 12.9719 20.049 13.0843C18.1318 13.1754 16.4288 13.6145 15.0203 15.0176C13.6118 16.4207 13.1781 18.1237 13.0817 20.0463C12.9692 22.0278 12.9692 27.9669 13.0817 29.9483C13.1727 31.8709 13.6118 33.5739 15.0203 34.977C16.4288 36.3801 18.1264 36.8193 20.049 36.9157C22.0305 37.0281 27.9695 37.0281 29.951 36.9157C31.8736 36.8246 33.5766 36.3855 34.9797 34.977C36.3828 33.5739 36.8219 31.8709 36.9183 29.9483C37.0308 27.9669 37.0308 22.0331 36.9183 20.0517ZM34.3585 32.0744C33.9408 33.1241 33.1321 33.9327 32.0771 34.3558C30.4973 34.9824 26.7485 34.8378 25.0027 34.8378C23.2568 34.8378 19.5027 34.977 17.9283 34.3558C16.8786 33.9381 16.0699 33.1294 15.6469 32.0744C15.0203 30.4946 15.1649 26.7458 15.1649 25C15.1649 23.2542 15.0257 19.5001 15.6469 17.9256C16.0646 16.8759 16.8732 16.0673 17.9283 15.6442C19.5081 15.0176 23.2568 15.1622 25.0027 15.1622C26.7485 15.1622 30.5026 15.023 32.0771 15.6442C33.1267 16.0619 33.9354 16.8706 34.3585 17.9256C34.985 19.5054 34.8404 23.2542 34.8404 25C34.8404 26.7458 34.985 30.4999 34.3585 32.0744Z" fill="var(--color-2)"/>
</symbol>

<symbol id="linkedin" width="50" height="50" viewBox="0 0 50 50" fill="none">
    <rect x="0.5" y="0.5" width="49" height="49" fill="var(--color-1)"/>
    <rect x="0.5" y="0.5" width="49.0007" height="49" stroke="#565656"/>
    <path d="M18.3723 37H13.3965V20.9764H18.3723V37ZM15.8817 18.7907C14.2906 18.7907 13.0001 17.4728 13.0001 15.8817C13.0001 15.1174 13.3037 14.3844 13.8441 13.844C14.3845 13.3036 15.1175 13 15.8817 13C16.646 13 17.379 13.3036 17.9194 13.844C18.4598 14.3844 18.7634 15.1174 18.7634 15.8817C18.7634 17.4728 17.4723 18.7907 15.8817 18.7907ZM36.9952 37H32.0301V29.1998C32.0301 27.3409 31.9926 24.9569 29.4431 24.9569C26.8561 24.9569 26.4597 26.9766 26.4597 29.0659V37H21.4892V20.9764H26.2614V23.1622H26.3311C26.9954 21.9032 28.6181 20.5746 31.039 20.5746C36.0749 20.5746 37.0006 23.8908 37.0006 28.198V37H36.9952Z" fill="var(--color-2)"/>
</symbol>

<symbol id="twitter" width="50" height="50" viewBox="0 0 50 50" fill="none">
    <rect x="0.5" y="0.5" width="49" height="49" fill="var(--color-1)"/>
    <rect x="0.5" y="0.5" width="49" height="49" stroke="#565656"/>
    <path d="M36.7375 18.9812C36.7563 19.2437 36.7563 19.5063 36.7563 19.7687C36.7563 27.775 30.6626 37 19.525 37C16.0938 37 12.9063 36.0062 10.225 34.2813C10.7126 34.3375 11.1813 34.3563 11.6875 34.3563C14.5187 34.3563 17.125 33.4 19.2063 31.7688C16.5438 31.7125 14.3125 29.9688 13.5438 27.5687C13.9188 27.625 14.2938 27.6625 14.6876 27.6625C15.2313 27.6625 15.7751 27.5874 16.2813 27.4563C13.5063 26.8937 11.425 24.4562 11.425 21.5125V21.4375C12.2312 21.8875 13.1688 22.1688 14.1625 22.2062C12.5312 21.1187 11.4625 19.2625 11.4625 17.1625C11.4625 16.0375 11.7624 15.0062 12.2875 14.1062C15.2687 17.7812 19.75 20.1812 24.775 20.4437C24.6812 19.9937 24.625 19.525 24.625 19.0563C24.625 15.7187 27.325 13 30.6812 13C32.425 13 33.9999 13.7312 35.1062 14.9125C36.4749 14.65 37.7874 14.1437 38.95 13.45C38.4999 14.8563 37.5437 16.0375 36.2875 16.7875C37.5062 16.6563 38.6875 16.3187 39.775 15.85C38.9501 17.05 37.9188 18.1187 36.7375 18.9812Z" fill="var(--color-2 )"/>
</symbol>

</svg>